<?xml version="1.0" encoding="UTF-8" standalone="no"?>
<!-- Created with Inkscape (http://www.inkscape.org/) -->

<svg
   xmlns:dc="http://purl.org/dc/elements/1.1/"
   xmlns:cc="http://creativecommons.org/ns#"
   xmlns:rdf="http://www.w3.org/1999/02/22-rdf-syntax-ns#"
   xmlns:svg="http://www.w3.org/2000/svg"
   xmlns="http://www.w3.org/2000/svg"
   xmlns:sodipodi="http://sodipodi.sourceforge.net/DTD/sodipodi-0.dtd"
   xmlns:inkscape="http://www.inkscape.org/namespaces/inkscape"
   id="svg4510"
   version="1.1"
   viewBox="0 0 210 297"
   height="297mm"
   width="210mm"
   inkscape:version="0.92.1 r15371"
   sodipodi:docname="Table V001 - no holes.svg">
  <sodipodi:namedview
     inkscape:window-maximized="1"
     inkscape:window-y="-8"
     inkscape:window-x="1912"
     inkscape:window-height="1017"
     inkscape:window-width="1920"
     showgrid="false"
     inkscape:current-layer="svg4510"
     inkscape:document-units="mm"
     inkscape:cy="750.74769"
     inkscape:cx="355.74369"
     inkscape:zoom="0.98994949"
     inkscape:pageshadow="2"
     inkscape:pageopacity="0.0"
     borderopacity="1.0"
     bordercolor="#666666"
     pagecolor="#ffffff"
     id="base" />
  <defs
     id="defs4504" />
  <metadata
     id="metadata4507">
    <rdf:RDF>
      <cc:Work
         rdf:about="">
        <dc:format>image/svg+xml</dc:format>
        <dc:type
           rdf:resource="http://purl.org/dc/dcmitype/StillImage" />
        <dc:title></dc:title>
      </cc:Work>
    </rdf:RDF>
  </metadata>
  <g
     id="layer1"
     inkscape:groupmode="layer"
     inkscape:label="Layer 1" />
  <g
     id="g5601"
     inkscape:groupmode="layer"
     inkscape:label="newlayer" />
  <path
     id="path5603"
     inkscape:label="part"
     style="stroke:#000000;stroke-width:1;fill:none"
     d="M 552.0,4.0 L 560.021666666,4.0 L 560.021666666,1.0 L 571.178333334,1.0 L 571.178333334,4.0 L 582.154999999,4.0 L 582.154999999,1.0 L 593.311666668,1.0 L 593.311666668,4.0 L 604.288333332,4.0 L 604.288333332,1.0 L 615.445000001,1.0 L 615.445000001,4.0 L 626.421666666,4.0 L 626.421666666,1.0 L 637.578333334,1.0 L 637.578333334,4.0 L 648.554999999,4.0 L 648.554999999,1.0 L 659.711666668,1.0 L 659.711666668,4.0 L 670.688333332,4.0 L 670.688333332,1.0 L 681.845000001,1.0 L 681.845000001,4.0 L 692.821666666,4.0 L 692.821666666,1.0 L 703.978333334,1.0 L 703.978333334,4.0 L 712.0,4.0 " />
  <path
     id="path5605"
     inkscape:label="part"
     style="stroke:#000000;stroke-width:1;fill:none"
     d="M 627.5,1.0 L 627.5,15.7327777769 L 630.5,15.7327777769 L 630.5,1.0 L 627.5,1.0 " />
  <path
     id="path5607"
     inkscape:label="part"
     style="stroke:#000000;stroke-width:1;fill:none"
     d="M 630.5,24.6005555564 L 630.5,36.2883333325 L 633.5,36.2883333325 L 633.5,24.6005555564 L 630.5,24.6005555564 " />
  <path
     id="path5609"
     inkscape:label="part"
     style="stroke:#000000;stroke-width:1;fill:none"
     d="M 630.5,48.156111112 L 630.5,59.843888888 L 633.5,59.843888888 L 633.5,48.156111112 L 630.5,48.156111112 " />
  <path
     id="path5611"
     inkscape:label="part"
     style="stroke:#000000;stroke-width:1;fill:none"
     d="M 630.5,71.7116666675 L 630.5,83.3994444436 L 633.5,83.3994444436 L 633.5,71.7116666675 L 630.5,71.7116666675 " />
  <path
     id="path5613"
     inkscape:label="part"
     style="stroke:#000000;stroke-width:1;fill:none"
     d="M 712.0,95.2672222231 L 712.0,107.135000003 L 715.0,107.135000003 L 712.0,95.2672222231 L 709.0,95.2672222231 " />
  <path
     id="path5615"
     inkscape:label="part"
     style="stroke:#000000;stroke-width:1;fill:none"
     d="M 712.0,4.0 L 712.0,12.7327777769 L 715.0,12.7327777769 L 715.0,24.6005555564 L 712.0,24.6005555564 L 712.0,36.2883333325 L 715.0,36.2883333325 L 715.0,48.156111112 L 712.0,48.156111112 L 712.0,59.843888888 L 715.0,59.843888888 L 715.0,71.7116666675 L 712.0,71.7116666675 L 712.0,83.3994444436 L 715.0,83.3994444436 L 715.0,95.2672222231 L 712.0,95.2672222231 L 712.0,104.0 " />
  <path
     id="path5617"
     inkscape:label="part"
     style="stroke:#000000;stroke-width:1;fill:none"
     d="M 712.0,104.0 L 703.978333334,104.0 L 703.978333334,107.0 L 692.821666666,107.0 L 692.821666666,104.0 L 681.845000001,104.0 L 681.845000001,107.0 L 670.688333332,107.0 L 670.688333332,104.0 L 659.711666668,104.0 L 659.711666668,107.0 L 648.554999999,107.0 L 648.554999999,104.0 L 637.578333334,104.0 L 637.578333334,107.0 L 626.421666666,107.0 L 626.421666666,104.0 L 615.445000001,104.0 L 615.445000001,107.0 L 604.288333332,107.0 L 604.288333332,104.0 L 593.311666668,104.0 L 593.311666668,107.0 L 582.154999999,107.0 L 582.154999999,104.0 L 571.178333334,104.0 L 571.178333334,107.0 L 560.021666666,107.0 L 560.021666666,104.0 L 552.0,104.0 " />
  <path
     id="path5619"
     inkscape:label="part"
     style="stroke:#000000;stroke-width:1;fill:none"
     d="M 552.0,104.0 L 552.0,95.2672222231 L 549.0,95.2672222231 L 549.0,83.3994444436 L 552.0,83.3994444436 L 552.0,71.7116666675 L 549.0,71.7116666675 L 549.0,59.843888888 L 552.0,59.843888888 L 552.0,48.156111112 L 549.0,48.156111112 L 549.0,36.2883333325 L 552.0,36.2883333325 L 552.0,24.6005555564 L 549.0,24.6005555564 L 549.0,12.7327777769 L 552.0,12.7327777769 L 552.0,4.0 " />
  <path
     id="path5621"
     inkscape:label="part"
     style="stroke:#000000;stroke-width:1;fill:none"
     d="M 3.0,435.0 L 11.0216666658,435.0 L 11.0216666658,435.0 L 22.1783333342,435.0 L 22.1783333342,435.0 L 33.1549999991,435.0 L 33.1549999991,435.0 L 44.3116666675,435.0 L 44.3116666675,435.0 L 55.2883333325,435.0 L 55.2883333325,435.0 L 66.4450000009,435.0 L 66.4450000009,435.0 L 77.4216666658,435.0 L 77.4216666658,435.0 L 88.5783333342,435.0 L 88.5783333342,435.0 L 99.5549999991,435.0 L 99.5549999991,435.0 L 110.711666668,435.0 L 110.711666668,435.0 L 121.688333332,435.0 L 121.688333332,435.0 L 132.845000001,435.0 L 132.845000001,435.0 L 143.821666666,435.0 L 143.821666666,435.0 L 154.978333334,435.0 L 154.978333334,435.0 L 163.0,435.0 " />
  <path
     id="path5623"
     inkscape:label="part"
     style="stroke:#000000;stroke-width:1;fill:none"
     d="M 78.5,432.0 L 78.5,485.045000001 L 81.5,485.045000001 L 81.5,432.0 L 78.5,432.0 " />
  <path
     id="path5625"
     inkscape:label="part"
     style="stroke:#000000;stroke-width:1;fill:none"
     d="M 163.0,435.0 L 163.0,443.732777777 L 166.0,443.732777777 L 166.0,455.600555556 L 163.0,455.600555556 L 163.0,467.288333332 L 166.0,467.288333332 L 166.0,479.156111112 L 163.0,479.156111112 L 163.0,490.843888888 L 166.0,490.843888888 L 166.0,502.711666668 L 163.0,502.711666668 L 163.0,514.399444444 L 166.0,514.399444444 L 166.0,526.267222223 L 163.0,526.267222223 L 163.0,535.0 " />
  <path
     id="path5627"
     inkscape:label="part"
     style="stroke:#000000;stroke-width:1;fill:none"
     d="M 163.0,535.0 L 154.978333334,535.0 L 154.978333334,535.0 L 143.821666666,535.0 L 143.821666666,535.0 L 132.845000001,535.0 L 132.845000001,535.0 L 121.688333332,535.0 L 121.688333332,535.0 L 110.711666668,535.0 L 110.711666668,535.0 L 99.5549999991,535.0 L 99.5549999991,535.0 L 88.5783333342,535.0 L 88.5783333342,535.0 L 77.4216666658,535.0 L 77.4216666658,535.0 L 66.4450000009,535.0 L 66.4450000009,535.0 L 55.2883333325,535.0 L 55.2883333325,535.0 L 44.3116666675,535.0 L 44.3116666675,535.0 L 33.1549999991,535.0 L 33.1549999991,535.0 L 22.1783333342,535.0 L 22.1783333342,535.0 L 11.0216666658,535.0 L 11.0216666658,535.0 L 3.0,535.0 " />
  <path
     id="path5629"
     inkscape:label="part"
     style="stroke:#000000;stroke-width:1;fill:none"
     d="M 3.0,535.0 L 3.0,526.267222223 L 0.0,526.267222223 L 0.0,514.399444444 L 3.0,514.399444444 L 3.0,502.711666668 L 0.0,502.711666668 L 0.0,490.843888888 L 3.0,490.843888888 L 3.0,479.156111112 L 0.0,479.156111112 L 0.0,467.288333332 L 3.0,467.288333332 L 3.0,455.600555556 L 0.0,455.600555556 L 0.0,443.732777777 L 3.0,443.732777777 L 3.0,435.0 " />
  <path
     id="path5631"
     inkscape:label="part"
     style="stroke:#000000;stroke-width:1;fill:none"
     d="M 346.822777779,110.5 L 358.510555555,110.5 L 358.510555555,107.5 L 346.822777779,107.5 L 346.822777779,110.5 " />
  <path
     id="path5633"
     inkscape:label="part"
     style="stroke:#000000;stroke-width:1;fill:none"
     d="M 370.378333334,110.5 L 382.06611111,110.5 L 382.06611111,107.5 L 370.378333334,107.5 L 370.378333334,110.5 " />
  <path
     id="path5635"
     inkscape:label="part"
     style="stroke:#000000;stroke-width:1;fill:none"
     d="M 393.93388889,110.5 L 405.621666666,110.5 L 405.621666666,107.5 L 393.93388889,107.5 L 393.93388889,110.5 " />
  <path
     id="path5637"
     inkscape:label="part"
     style="stroke:#000000;stroke-width:1;fill:none"
     d="M 417.489444445,110.5 L 429.177222221,110.5 L 429.177222221,107.5 L 417.489444445,107.5 L 417.489444445,110.5 " />
  <path
     id="path5639"
     inkscape:label="part"
     style="stroke:#000000;stroke-width:1;fill:none"
     d="M 338.0,1.0 L 346.822777779,1.0 L 346.822777779,4.0 L 358.510555555,4.0 L 358.510555555,1.0 L 370.378333334,1.0 L 370.378333334,4.0 L 382.06611111,4.0 L 382.06611111,1.0 L 393.93388889,1.0 L 393.93388889,4.0 L 405.621666666,4.0 L 405.621666666,1.0 L 417.489444445,1.0 L 417.489444445,4.0 L 429.177222221,4.0 L 429.177222221,1.0 L 438.0,1.0 " />
  <path
     id="path5641"
     inkscape:label="part"
     style="stroke:#000000;stroke-width:1;fill:none"
     d="M 438.0,1.0 L 438.0,11.2407142849 L 441.0,11.2407142849 L 441.0,21.6164285723 L 438.0,21.6164285723 L 438.0,31.8121428563 L 441.0,31.8121428563 L 441.0,42.1878571437 L 438.0,42.1878571437 L 438.0,52.3835714277 L 441.0,52.3835714277 L 441.0,62.7592857151 L 438.0,62.7592857151 L 438.0,72.9549999991 L 441.0,72.9549999991 L 441.0,83.3307142866 L 438.0,83.3307142866 L 438.0,93.5264285706 L 441.0,93.5264285706 L 441.0,103.902142858 L 438.0,103.902142858 L 438.0,114.097857142 L 441.0,114.097857142 L 441.0,124.473571429 L 438.0,124.473571429 L 438.0,134.669285713 L 441.0,134.669285713 L 441.0,145.045000001 L 438.0,145.045000001 L 438.0,155.240714285 L 441.0,155.240714285 L 441.0,165.616428572 L 438.0,165.616428572 L 438.0,175.812142856 L 441.0,175.812142856 L 441.0,186.187857144 L 438.0,186.187857144 L 438.0,196.383571428 L 441.0,196.383571428 L 441.0,206.759285715 L 438.0,206.759285715 L 438.0,217.0 " />
  <path
     id="path5643"
     inkscape:label="part"
     style="stroke:#000000;stroke-width:1;fill:none"
     d="M 438.0,217.0 L 429.177222221,217.0 L 429.177222221,214.0 L 417.489444445,214.0 L 417.489444445,217.0 L 405.621666666,217.0 L 405.621666666,214.0 L 393.93388889,214.0 L 393.93388889,217.0 L 382.06611111,217.0 L 382.06611111,214.0 L 370.378333334,214.0 L 370.378333334,217.0 L 358.510555555,217.0 L 358.510555555,214.0 L 346.822777779,214.0 L 346.822777779,217.0 L 338.0,217.0 " />
  <path
     id="path5645"
     inkscape:label="part"
     style="stroke:#000000;stroke-width:1;fill:none"
     d="M 338.0,217.0 L 338.0,206.759285715 L 335.0,206.759285715 L 335.0,196.383571428 L 338.0,196.383571428 L 338.0,186.187857144 L 335.0,186.187857144 L 335.0,175.812142856 L 338.0,175.812142856 L 338.0,165.616428572 L 335.0,165.616428572 L 335.0,155.240714285 L 338.0,155.240714285 L 338.0,145.045000001 L 335.0,145.045000001 L 335.0,134.669285713 L 338.0,134.669285713 L 338.0,124.473571429 L 335.0,124.473571429 L 335.0,114.097857142 L 338.0,114.097857142 L 338.0,103.902142858 L 335.0,103.902142858 L 335.0,93.5264285706 L 338.0,93.5264285706 L 338.0,83.3307142866 L 335.0,83.3307142866 L 335.0,72.9549999991 L 338.0,72.9549999991 L 338.0,62.7592857151 L 335.0,62.7592857151 L 335.0,52.3835714277 L 338.0,52.3835714277 L 338.0,42.1878571437 L 335.0,42.1878571437 L 335.0,31.8121428563 L 338.0,31.8121428563 L 338.0,21.6164285723 L 335.0,21.6164285723 L 335.0,11.2407142849 L 338.0,11.2407142849 L 338.0,1.0 " />
  <path
     id="path5647"
     inkscape:label="part"
     style="stroke:#000000;stroke-width:1;fill:none"
     d="M 0.0,642.5 L 52.9549999991,642.5 L 52.9549999991,645.5 L 0.0,645.5 L 0.0,642.5 " />
  <path
     id="path5649"
     inkscape:label="part"
     style="stroke:#000000;stroke-width:1;fill:none"
     d="M 3.0,539.0 L 11.8227777786,539.0 L 11.8227777786,542.0 L 23.5105555547,542.0 L 23.5105555547,539.0 L 35.3783333342,539.0 L 35.3783333342,542.0 L 47.0661111103,542.0 L 47.0661111103,539.0 L 58.9338888897,539.0 L 58.9338888897,542.0 L 70.6216666658,542.0 L 70.6216666658,539.0 L 82.4894444453,539.0 L 82.4894444453,542.0 L 94.1772222214,542.0 L 94.1772222214,539.0 L 103.0,539.0 " />
  <path
     id="path5651"
     inkscape:label="part"
     style="stroke:#000000;stroke-width:1;fill:none"
     d="M 103.0,539.0 L 103.0,549.240714285 L 103.0,549.240714285 L 103.0,559.616428572 L 103.0,559.616428572 L 103.0,569.812142856 L 103.0,569.812142856 L 103.0,580.187857144 L 103.0,580.187857144 L 103.0,590.383571428 L 103.0,590.383571428 L 103.0,600.759285715 L 103.0,600.759285715 L 103.0,610.954999999 L 103.0,610.954999999 L 103.0,621.330714287 L 103.0,621.330714287 L 103.0,631.526428571 L 103.0,631.526428571 L 103.0,641.902142858 L 103.0,641.902142858 L 103.0,652.097857142 L 103.0,652.097857142 L 103.0,662.473571429 L 103.0,662.473571429 L 103.0,672.669285713 L 103.0,672.669285713 L 103.0,683.045000001 L 103.0,683.045000001 L 103.0,693.240714285 L 103.0,693.240714285 L 103.0,703.616428572 L 103.0,703.616428572 L 103.0,713.812142856 L 103.0,713.812142856 L 103.0,724.187857144 L 103.0,724.187857144 L 103.0,734.383571428 L 103.0,734.383571428 L 103.0,744.759285715 L 103.0,744.759285715 L 103.0,755.0 " />
  <path
     id="path5653"
     inkscape:label="part"
     style="stroke:#000000;stroke-width:1;fill:none"
     d="M 103.0,755.0 L 94.1772222214,755.0 L 94.1772222214,752.0 L 82.4894444453,752.0 L 82.4894444453,755.0 L 70.6216666658,755.0 L 70.6216666658,752.0 L 58.9338888897,752.0 L 58.9338888897,755.0 L 47.0661111103,755.0 L 47.0661111103,752.0 L 35.3783333342,752.0 L 35.3783333342,755.0 L 23.5105555547,755.0 L 23.5105555547,752.0 L 11.8227777786,752.0 L 11.8227777786,755.0 L 3.0,755.0 " />
  <path
     id="path5655"
     inkscape:label="part"
     style="stroke:#000000;stroke-width:1;fill:none"
     d="M 3.0,755.0 L 3.0,744.759285715 L 3.0,744.759285715 L 3.0,734.383571428 L 3.0,734.383571428 L 3.0,724.187857144 L 3.0,724.187857144 L 3.0,713.812142856 L 3.0,713.812142856 L 3.0,703.616428572 L 3.0,703.616428572 L 3.0,693.240714285 L 3.0,693.240714285 L 3.0,683.045000001 L 3.0,683.045000001 L 3.0,672.669285713 L 3.0,672.669285713 L 3.0,662.473571429 L 3.0,662.473571429 L 3.0,652.097857142 L 3.0,652.097857142 L 3.0,641.902142858 L 3.0,641.902142858 L 3.0,631.526428571 L 3.0,631.526428571 L 3.0,621.330714287 L 3.0,621.330714287 L 3.0,610.954999999 L 3.0,610.954999999 L 3.0,600.759285715 L 3.0,600.759285715 L 3.0,590.383571428 L 3.0,590.383571428 L 3.0,580.187857144 L 3.0,580.187857144 L 3.0,569.812142856 L 3.0,569.812142856 L 3.0,559.616428572 L 3.0,559.616428572 L 3.0,549.240714285 L 3.0,549.240714285 L 3.0,539.0 " />
  <path
     id="path5657"
     inkscape:label="part"
     style="stroke:#000000;stroke-width:1;fill:none"
     d="M 719.0,4.0 L 727.021666666,4.0 L 727.021666666,1.0 L 738.178333334,1.0 L 738.178333334,4.0 L 749.154999999,4.0 L 749.154999999,1.0 L 760.311666668,1.0 L 760.311666668,4.0 L 771.288333332,4.0 L 771.288333332,1.0 L 782.445000001,1.0 L 782.445000001,4.0 L 793.421666666,4.0 L 793.421666666,1.0 L 804.578333334,1.0 L 804.578333334,4.0 L 815.554999999,4.0 L 815.554999999,1.0 L 826.711666668,1.0 L 826.711666668,4.0 L 837.688333332,4.0 L 837.688333332,1.0 L 848.845000001,1.0 L 848.845000001,4.0 L 859.821666666,4.0 L 859.821666666,1.0 L 870.978333334,1.0 L 870.978333334,4.0 L 879.0,4.0 " />
  <path
     id="path5659"
     inkscape:label="part"
     style="stroke:#000000;stroke-width:1;fill:none"
     d="M 794.5,1.0 L 794.5,15.7327777769 L 797.5,15.7327777769 L 797.5,1.0 L 794.5,1.0 " />
  <path
     id="path5661"
     inkscape:label="part"
     style="stroke:#000000;stroke-width:1;fill:none"
     d="M 797.5,24.6005555564 L 797.5,36.2883333325 L 800.5,36.2883333325 L 800.5,24.6005555564 L 797.5,24.6005555564 " />
  <path
     id="path5663"
     inkscape:label="part"
     style="stroke:#000000;stroke-width:1;fill:none"
     d="M 797.5,48.156111112 L 797.5,59.843888888 L 800.5,59.843888888 L 800.5,48.156111112 L 797.5,48.156111112 " />
  <path
     id="path5665"
     inkscape:label="part"
     style="stroke:#000000;stroke-width:1;fill:none"
     d="M 797.5,71.7116666675 L 797.5,83.3994444436 L 800.5,83.3994444436 L 800.5,71.7116666675 L 797.5,71.7116666675 " />
  <path
     id="path5667"
     inkscape:label="part"
     style="stroke:#000000;stroke-width:1;fill:none"
     d="M 879.0,95.2672222231 L 879.0,107.135000003 L 882.0,107.135000003 L 879.0,95.2672222231 L 876.0,95.2672222231 " />
  <path
     id="path5669"
     inkscape:label="part"
     style="stroke:#000000;stroke-width:1;fill:none"
     d="M 879.0,4.0 L 879.0,12.7327777769 L 882.0,12.7327777769 L 882.0,24.6005555564 L 879.0,24.6005555564 L 879.0,36.2883333325 L 882.0,36.2883333325 L 882.0,48.156111112 L 879.0,48.156111112 L 879.0,59.843888888 L 882.0,59.843888888 L 882.0,71.7116666675 L 879.0,71.7116666675 L 879.0,83.3994444436 L 882.0,83.3994444436 L 882.0,95.2672222231 L 879.0,95.2672222231 L 879.0,104.0 " />
  <path
     id="path5671"
     inkscape:label="part"
     style="stroke:#000000;stroke-width:1;fill:none"
     d="M 879.0,104.0 L 870.978333334,104.0 L 870.978333334,107.0 L 859.821666666,107.0 L 859.821666666,104.0 L 848.845000001,104.0 L 848.845000001,107.0 L 837.688333332,107.0 L 837.688333332,104.0 L 826.711666668,104.0 L 826.711666668,107.0 L 815.554999999,107.0 L 815.554999999,104.0 L 804.578333334,104.0 L 804.578333334,107.0 L 793.421666666,107.0 L 793.421666666,104.0 L 782.445000001,104.0 L 782.445000001,107.0 L 771.288333332,107.0 L 771.288333332,104.0 L 760.311666668,104.0 L 760.311666668,107.0 L 749.154999999,107.0 L 749.154999999,104.0 L 738.178333334,104.0 L 738.178333334,107.0 L 727.021666666,107.0 L 727.021666666,104.0 L 719.0,104.0 " />
  <path
     id="path5673"
     inkscape:label="part"
     style="stroke:#000000;stroke-width:1;fill:none"
     d="M 719.0,104.0 L 719.0,95.2672222231 L 716.0,95.2672222231 L 716.0,83.3994444436 L 719.0,83.3994444436 L 719.0,71.7116666675 L 716.0,71.7116666675 L 716.0,59.843888888 L 719.0,59.843888888 L 719.0,48.156111112 L 716.0,48.156111112 L 716.0,36.2883333325 L 719.0,36.2883333325 L 719.0,24.6005555564 L 716.0,24.6005555564 L 716.0,12.7327777769 L 719.0,12.7327777769 L 719.0,4.0 " />
  <path
     id="path5675"
     inkscape:label="part"
     style="stroke:#000000;stroke-width:1;fill:none"
     d="M 453.822777779,110.5 L 465.510555555,110.5 L 465.510555555,107.5 L 453.822777779,107.5 L 453.822777779,110.5 " />
  <path
     id="path5677"
     inkscape:label="part"
     style="stroke:#000000;stroke-width:1;fill:none"
     d="M 477.378333334,110.5 L 489.06611111,110.5 L 489.06611111,107.5 L 477.378333334,107.5 L 477.378333334,110.5 " />
  <path
     id="path5679"
     inkscape:label="part"
     style="stroke:#000000;stroke-width:1;fill:none"
     d="M 500.93388889,110.5 L 512.621666666,110.5 L 512.621666666,107.5 L 500.93388889,107.5 L 500.93388889,110.5 " />
  <path
     id="path5681"
     inkscape:label="part"
     style="stroke:#000000;stroke-width:1;fill:none"
     d="M 524.489444445,110.5 L 536.177222221,110.5 L 536.177222221,107.5 L 524.489444445,107.5 L 524.489444445,110.5 " />
  <path
     id="path5683"
     inkscape:label="part"
     style="stroke:#000000;stroke-width:1;fill:none"
     d="M 445.0,1.0 L 453.822777779,1.0 L 453.822777779,4.0 L 465.510555555,4.0 L 465.510555555,1.0 L 477.378333334,1.0 L 477.378333334,4.0 L 489.06611111,4.0 L 489.06611111,1.0 L 500.93388889,1.0 L 500.93388889,4.0 L 512.621666666,4.0 L 512.621666666,1.0 L 524.489444445,1.0 L 524.489444445,4.0 L 536.177222221,4.0 L 536.177222221,1.0 L 545.0,1.0 " />
  <path
     id="path5685"
     inkscape:label="part"
     style="stroke:#000000;stroke-width:1;fill:none"
     d="M 545.0,1.0 L 545.0,11.2407142849 L 548.0,11.2407142849 L 548.0,21.6164285723 L 545.0,21.6164285723 L 545.0,31.8121428563 L 548.0,31.8121428563 L 548.0,42.1878571437 L 545.0,42.1878571437 L 545.0,52.3835714277 L 548.0,52.3835714277 L 548.0,62.7592857151 L 545.0,62.7592857151 L 545.0,72.9549999991 L 548.0,72.9549999991 L 548.0,83.3307142866 L 545.0,83.3307142866 L 545.0,93.5264285706 L 548.0,93.5264285706 L 548.0,103.902142858 L 545.0,103.902142858 L 545.0,114.097857142 L 548.0,114.097857142 L 548.0,124.473571429 L 545.0,124.473571429 L 545.0,134.669285713 L 548.0,134.669285713 L 548.0,145.045000001 L 545.0,145.045000001 L 545.0,155.240714285 L 548.0,155.240714285 L 548.0,165.616428572 L 545.0,165.616428572 L 545.0,175.812142856 L 548.0,175.812142856 L 548.0,186.187857144 L 545.0,186.187857144 L 545.0,196.383571428 L 548.0,196.383571428 L 548.0,206.759285715 L 545.0,206.759285715 L 545.0,217.0 " />
  <path
     id="path5687"
     inkscape:label="part"
     style="stroke:#000000;stroke-width:1;fill:none"
     d="M 545.0,217.0 L 536.177222221,217.0 L 536.177222221,214.0 L 524.489444445,214.0 L 524.489444445,217.0 L 512.621666666,217.0 L 512.621666666,214.0 L 500.93388889,214.0 L 500.93388889,217.0 L 489.06611111,217.0 L 489.06611111,214.0 L 477.378333334,214.0 L 477.378333334,217.0 L 465.510555555,217.0 L 465.510555555,214.0 L 453.822777779,214.0 L 453.822777779,217.0 L 445.0,217.0 " />
  <path
     id="path5689"
     inkscape:label="part"
     style="stroke:#000000;stroke-width:1;fill:none"
     d="M 445.0,217.0 L 445.0,206.759285715 L 442.0,206.759285715 L 442.0,196.383571428 L 445.0,196.383571428 L 445.0,186.187857144 L 442.0,186.187857144 L 442.0,175.812142856 L 445.0,175.812142856 L 445.0,165.616428572 L 442.0,165.616428572 L 442.0,155.240714285 L 445.0,155.240714285 L 445.0,145.045000001 L 442.0,145.045000001 L 442.0,134.669285713 L 445.0,134.669285713 L 445.0,124.473571429 L 442.0,124.473571429 L 442.0,114.097857142 L 445.0,114.097857142 L 445.0,103.902142858 L 442.0,103.902142858 L 442.0,93.5264285706 L 445.0,93.5264285706 L 445.0,83.3307142866 L 442.0,83.3307142866 L 442.0,72.9549999991 L 445.0,72.9549999991 L 445.0,62.7592857151 L 442.0,62.7592857151 L 442.0,52.3835714277 L 445.0,52.3835714277 L 445.0,42.1878571437 L 442.0,42.1878571437 L 442.0,31.8121428563 L 445.0,31.8121428563 L 445.0,21.6164285723 L 442.0,21.6164285723 L 442.0,11.2407142849 L 445.0,11.2407142849 L 445.0,1.0 " />
  <path
     id="path5691"
     inkscape:label="part"
     style="stroke:#000000;stroke-width:1;fill:none"
     d="M 168.0,1.0 L 179.111666668,1.0 L 179.111666668,4.0 L 190.088333332,4.0 L 190.088333332,1.0 L 201.245000001,1.0 L 201.245000001,4.0 L 212.221666666,4.0 L 212.221666666,1.0 L 223.378333334,1.0 L 223.378333334,4.0 L 234.354999999,4.0 L 234.354999999,1.0 L 245.511666668,1.0 L 245.511666668,4.0 L 256.488333332,4.0 L 256.488333332,1.0 L 267.645000001,1.0 L 267.645000001,4.0 L 278.621666666,4.0 L 278.621666666,1.0 L 289.778333334,1.0 L 289.778333334,4.0 L 300.754999999,4.0 L 300.754999999,1.0 L 311.911666668,1.0 L 311.911666668,4.0 L 322.888333332,4.0 L 322.888333332,1.0 L 334.0,1.0 " />
  <path
     id="path5693"
     inkscape:label="part"
     style="stroke:#000000;stroke-width:1;fill:none"
     d="M 334.0,1.0 L 334.0,11.3307142866 L 331.0,11.3307142866 L 331.0,21.5264285706 L 334.0,21.5264285706 L 334.0,31.902142858 L 331.0,31.902142858 L 331.0,42.097857142 L 334.0,42.097857142 L 334.0,52.4735714294 L 331.0,52.4735714294 L 331.0,62.6692857134 L 334.0,62.6692857134 L 334.0,73.0450000009 L 331.0,73.0450000009 L 331.0,83.2407142849 L 334.0,83.2407142849 L 334.0,93.6164285723 L 331.0,93.6164285723 L 331.0,103.812142856 L 334.0,103.812142856 L 334.0,114.187857144 L 331.0,114.187857144 L 331.0,124.383571428 L 334.0,124.383571428 L 334.0,134.759285715 L 331.0,134.759285715 L 331.0,144.954999999 L 334.0,144.954999999 L 334.0,155.330714287 L 331.0,155.330714287 L 331.0,165.526428571 L 334.0,165.526428571 L 334.0,175.902142858 L 331.0,175.902142858 L 331.0,186.097857142 L 334.0,186.097857142 L 334.0,196.473571429 L 331.0,196.473571429 L 331.0,206.669285713 L 334.0,206.669285713 L 334.0,217.0 " />
  <path
     id="path5695"
     inkscape:label="part"
     style="stroke:#000000;stroke-width:1;fill:none"
     d="M 334.0,217.0 L 322.888333332,217.0 L 322.888333332,214.0 L 311.911666668,214.0 L 311.911666668,217.0 L 300.754999999,217.0 L 300.754999999,214.0 L 289.778333334,214.0 L 289.778333334,217.0 L 278.621666666,217.0 L 278.621666666,214.0 L 267.645000001,214.0 L 267.645000001,217.0 L 256.488333332,217.0 L 256.488333332,214.0 L 245.511666668,214.0 L 245.511666668,217.0 L 234.354999999,217.0 L 234.354999999,214.0 L 223.378333334,214.0 L 223.378333334,217.0 L 212.221666666,217.0 L 212.221666666,214.0 L 201.245000001,214.0 L 201.245000001,217.0 L 190.088333332,217.0 L 190.088333332,214.0 L 179.111666668,214.0 L 179.111666668,217.0 L 168.0,217.0 " />
  <path
     id="path5697"
     inkscape:label="part"
     style="stroke:#000000;stroke-width:1;fill:none"
     d="M 168.0,217.0 L 168.0,206.669285713 L 171.0,206.669285713 L 171.0,196.473571429 L 168.0,196.473571429 L 168.0,186.097857142 L 171.0,186.097857142 L 171.0,175.902142858 L 168.0,175.902142858 L 168.0,165.526428571 L 171.0,165.526428571 L 171.0,155.330714287 L 168.0,155.330714287 L 168.0,144.954999999 L 171.0,144.954999999 L 171.0,134.759285715 L 168.0,134.759285715 L 168.0,124.383571428 L 171.0,124.383571428 L 171.0,114.187857144 L 168.0,114.187857144 L 168.0,103.812142856 L 171.0,103.812142856 L 171.0,93.6164285723 L 168.0,93.6164285723 L 168.0,83.2407142849 L 171.0,83.2407142849 L 171.0,73.0450000009 L 168.0,73.0450000009 L 168.0,62.6692857134 L 171.0,62.6692857134 L 171.0,52.4735714294 L 168.0,52.4735714294 L 168.0,42.097857142 L 171.0,42.097857142 L 171.0,31.902142858 L 168.0,31.902142858 L 168.0,21.5264285706 L 171.0,21.5264285706 L 171.0,11.3307142866 L 168.0,11.3307142866 L 168.0,1.0 " />
  <path
     id="path5699"
     inkscape:label="part"
     style="stroke:#000000;stroke-width:1;fill:none"
     d="M 1.0,1.0 L 12.1116666675,1.0 L 12.1116666675,4.0 L 23.0883333325,4.0 L 23.0883333325,1.0 L 34.2450000009,1.0 L 34.2450000009,4.0 L 45.2216666658,4.0 L 45.2216666658,1.0 L 56.3783333342,1.0 L 56.3783333342,4.0 L 67.3549999991,4.0 L 67.3549999991,1.0 L 78.5116666675,1.0 L 78.5116666675,4.0 L 89.4883333325,4.0 L 89.4883333325,1.0 L 100.645000001,1.0 L 100.645000001,4.0 L 111.621666666,4.0 L 111.621666666,1.0 L 122.778333334,1.0 L 122.778333334,4.0 L 133.754999999,4.0 L 133.754999999,1.0 L 144.911666668,1.0 L 144.911666668,4.0 L 155.888333332,4.0 L 155.888333332,1.0 L 167.0,1.0 " />
  <path
     id="path5701"
     inkscape:label="part"
     style="stroke:#000000;stroke-width:1;fill:none"
     d="M 167.0,1.0 L 167.0,11.3307142866 L 164.0,11.3307142866 L 164.0,21.5264285706 L 167.0,21.5264285706 L 167.0,31.902142858 L 164.0,31.902142858 L 164.0,42.097857142 L 167.0,42.097857142 L 167.0,52.4735714294 L 164.0,52.4735714294 L 164.0,62.6692857134 L 167.0,62.6692857134 L 167.0,73.0450000009 L 164.0,73.0450000009 L 164.0,83.2407142849 L 167.0,83.2407142849 L 167.0,93.6164285723 L 164.0,93.6164285723 L 164.0,103.812142856 L 167.0,103.812142856 L 167.0,114.187857144 L 164.0,114.187857144 L 164.0,124.383571428 L 167.0,124.383571428 L 167.0,134.759285715 L 164.0,134.759285715 L 164.0,144.954999999 L 167.0,144.954999999 L 167.0,155.330714287 L 164.0,155.330714287 L 164.0,165.526428571 L 167.0,165.526428571 L 167.0,175.902142858 L 164.0,175.902142858 L 164.0,186.097857142 L 167.0,186.097857142 L 167.0,196.473571429 L 164.0,196.473571429 L 164.0,206.669285713 L 167.0,206.669285713 L 167.0,217.0 " />
  <path
     id="path5703"
     inkscape:label="part"
     style="stroke:#000000;stroke-width:1;fill:none"
     d="M 167.0,217.0 L 155.888333332,217.0 L 155.888333332,214.0 L 144.911666668,214.0 L 144.911666668,217.0 L 133.754999999,217.0 L 133.754999999,214.0 L 122.778333334,214.0 L 122.778333334,217.0 L 111.621666666,217.0 L 111.621666666,214.0 L 100.645000001,214.0 L 100.645000001,217.0 L 89.4883333325,217.0 L 89.4883333325,214.0 L 78.5116666675,214.0 L 78.5116666675,217.0 L 67.3549999991,217.0 L 67.3549999991,214.0 L 56.3783333342,214.0 L 56.3783333342,217.0 L 45.2216666658,217.0 L 45.2216666658,214.0 L 34.2450000009,214.0 L 34.2450000009,217.0 L 23.0883333325,217.0 L 23.0883333325,214.0 L 12.1116666675,214.0 L 12.1116666675,217.0 L 1.0,217.0 " />
  <path
     id="path5705"
     inkscape:label="part"
     style="stroke:#000000;stroke-width:1;fill:none"
     d="M 1.0,217.0 L 1.0,206.669285713 L 4.0,206.669285713 L 4.0,196.473571429 L 1.0,196.473571429 L 1.0,186.097857142 L 4.0,186.097857142 L 4.0,175.902142858 L 1.0,175.902142858 L 1.0,165.526428571 L 4.0,165.526428571 L 4.0,155.330714287 L 1.0,155.330714287 L 1.0,144.954999999 L 4.0,144.954999999 L 4.0,134.759285715 L 1.0,134.759285715 L 1.0,124.383571428 L 4.0,124.383571428 L 4.0,114.187857144 L 1.0,114.187857144 L 1.0,103.812142856 L 4.0,103.812142856 L 4.0,93.6164285723 L 1.0,93.6164285723 L 1.0,83.2407142849 L 4.0,83.2407142849 L 4.0,73.0450000009 L 1.0,73.0450000009 L 1.0,62.6692857134 L 4.0,62.6692857134 L 4.0,52.4735714294 L 1.0,52.4735714294 L 1.0,42.097857142 L 4.0,42.097857142 L 4.0,31.902142858 L 1.0,31.902142858 L 1.0,21.5264285706 L 4.0,21.5264285706 L 4.0,11.3307142866 L 1.0,11.3307142866 L 1.0,1.0 " />
</svg>
